<svg viewBox="0 0 100 100" fill="none" xmlns="http://www.w3.org/2000/svg">
  <path d="M 15 75 C 35 95 65 95 85 75 C 65 90 35 90 15 75 Z" fill="#ea580c" />
  <path d="M 10 65 C 30 90 70 90 90 65 C 70 85 30 85 10 65 Z" fill="#0284c7" />
  
  <rect x="24" y="45" width="14" height="30" fill="#0284c7" rx="1"/>
  <rect x="43" y="30" width="14" height="45" fill="#16a34a" rx="1"/>
  <rect x="62" y="40" width="14" height="35" fill="#ea580c" rx="1"/>
  
  <path d="M 31 40 L 50 25 L 69 35" stroke="#0284c7" stroke-width="2" />
  <circle cx="31" cy="40" r="4" fill="#0284c7" />
  <circle cx="50" cy="25" r="5" fill="#ea580c" />
  <circle cx="69" cy="35" r="4" fill="#16a34a" />
  
  <path d="M 25 60 L 43 75 L 75 45 L 70 40 L 43 65 L 30 55 Z" fill="#ffffff" />
</svg>